<?xml version="1.0" encoding="UTF-8" standalone="no" ?>
<!DOCTYPE svg PUBLIC "-//W3C//DTD SVG 1.1//EN" "http://www.w3.org/Graphics/SVG/1.1/DTD/svg11.dtd">
<svg xmlns="http://www.w3.org/2000/svg" xmlns:xlink="http://www.w3.org/1999/xlink" version="1.1" width="640" height="480" viewBox="0 0 640 480" xml:space="preserve">
<desc>Created with Fabric.js 3.6.6</desc>
<defs>
</defs>
<g transform="matrix(0.13 -0.13 0.13 0.13 155.98 241.31)"  >
<linearGradient id="SVGID_23" gradientUnits="userSpaceOnUse" gradientTransform="matrix(1 0 0 1 0 0)"  x1="-467.57" y1="-68.973" x2="-469.87" y2="488.43">
<stop offset="0%" style="stop-color:rgb(34,148,254);stop-opacity: 1"/>
<stop offset="100%" style="stop-color:rgb(1,79,150);stop-opacity: 1"/>
</linearGradient>
<path style="stroke: none; stroke-width: 1; stroke-dasharray: none; stroke-linecap: butt; stroke-dashoffset: 0; stroke-linejoin: miter; stroke-miterlimit: 4; fill: url(#SVGID_23); fill-rule: nonzero; opacity: 1;"  transform=" translate(469.87, -202.82)" d="m -184.26 202.82 c 0 157.74 -127.87 285.61 -285.61 285.61 s -285.61 -127.87 -285.61 -285.61 s 127.87 -285.61 285.61 -285.61 s 285.61 127.87 285.61 285.61 z" stroke-linecap="round" />
</g>
<g transform="matrix(0.08 -0.08 0.08 0.08 171.5 255.74)"  >
<path style="stroke: none; stroke-width: 1; stroke-dasharray: none; stroke-linecap: butt; stroke-dashoffset: 0; stroke-linejoin: miter; stroke-miterlimit: 4; fill: rgb(238,238,238); fill-rule: nonzero; opacity: 1;"  transform=" translate(469.87, -202.82)" d="m -184.26 202.82 c 0 157.74 -127.87 285.61 -285.61 285.61 s -285.61 -127.87 -285.61 -285.61 s 127.87 -285.61 285.61 -285.61 s 285.61 127.87 285.61 285.61 z" stroke-linecap="round" />
</g>
<g transform="matrix(1 0 0 1 329.07 261.04)"  >
<path style="stroke: rgb(0,0,0); stroke-width: 1; stroke-dasharray: none; stroke-linecap: round; stroke-dashoffset: 0; stroke-linejoin: round; stroke-miterlimit: 10; fill: none; fill-rule: nonzero; opacity: 1;"  transform=" translate(-330, -257.78)" d="M 329.999 257.77777777777777 L 330.001 257.77777777777777" stroke-linecap="round" />
</g>
<g transform="matrix(1 0 0 1 361.86 215.69)" style=""  >
		<text xml:space="preserve" font-family="Impact, Charcoal, sans-serif" font-size="31" font-style="normal" style="stroke: none; stroke-width: 1; stroke-dasharray: none; stroke-linecap: butt; stroke-dashoffset: 0; stroke-linejoin: miter; stroke-miterlimit: 4; fill: rgb(255,255,255); fill-rule: nonzero; opacity: 1; white-space: pre;" ><tspan x="-140.2" y="9.74" style="stroke-width: 1; font-style: normal; ">DataMine Insights</tspan></text>
</g>
<g transform="matrix(0.3 0 0 0.29 234.18 255.94)"  >
<path style="stroke: none; stroke-width: 1; stroke-dasharray: none; stroke-linecap: butt; stroke-dashoffset: 0; stroke-linejoin: miter; stroke-miterlimit: 4; fill: rgb(255,255,255); fill-rule: nonzero; opacity: 1;"  transform=" translate(-96.31, -249.88)" d="m 145.49 192.37 v 19.095 c -5.773 -3.1824 -11.583 -5.5508 -17.43 -7.1051 c -5.773 -1.6282 -11.62 -2.4423 -17.541 -2.4424 c -13.248 0.00011 -23.536 4.2188 -30.863 12.656 c -7.3272 8.3634 -10.991 20.131 -10.991 35.304 c -0.000034 15.172 3.6635 26.977 10.991 35.415 c 7.3271 8.3634 17.615 12.545 30.863 12.545 c 5.9209 0.00002 11.768 -0.77711 17.541 -2.3314 c 5.8468 -1.6282 11.657 -4.0336 17.43 -7.2162 v 18.873 c -5.699 2.6644 -11.62 4.6628 -17.763 5.995 c -6.0691 1.3322 -12.545 1.9983 -19.428 1.9983 c -18.725 0 -33.601 -5.8839 -44.629 -17.652 s -16.542 -27.643 -16.542 -47.627 c -0.000012 -20.279 5.5509 -36.229 16.653 -47.849 c 11.176 -11.62 26.459 -17.43 45.85 -17.43 c 6.2909 0.00013 12.434 0.66623 18.429 1.9983 c 5.9949 1.2583 11.805 3.1826 17.43 5.7729" stroke-linecap="round" />
</g>
<g transform="matrix(0.3 0 0 0.29 273.97 255.95)"  >
<path style="stroke: none; stroke-width: 1; stroke-dasharray: none; stroke-linecap: butt; stroke-dashoffset: 0; stroke-linejoin: miter; stroke-miterlimit: 4; fill: rgb(255,255,255); fill-rule: nonzero; opacity: 1;"  transform=" translate(-228.98, -249.88)" d="m 228.98 201.92 c -10.954 0.00011 -19.613 4.2928 -25.978 12.878 c -6.3651 8.5114 -9.5476 20.205 -9.5475 35.082 c -0.00003 14.876 3.1455 26.607 9.4365 35.193 c 6.365 8.5114 15.061 12.767 26.089 12.767 c 10.88 0.00002 19.502 -4.2927 25.867 -12.878 c 6.3649 -8.5853 9.5474 -20.279 9.5475 -35.082 c -0.00011 -14.728 -3.1826 -26.385 -9.5475 -34.971 c -6.3651 -8.6593 -14.987 -12.989 -25.867 -12.989 m 0 -17.319 c 17.763 0.00013 31.714 5.773 41.854 17.319 s 15.209 27.532 15.209 47.96 c -0.00013 20.353 -5.0699 36.34 -15.209 47.96 c -10.14 11.546 -24.091 17.319 -41.854 17.319 c -17.837 0 -31.825 -5.7729 -41.965 -17.319 c -10.066 -11.62 -15.098 -27.606 -15.098 -47.96 c -0.00001 -20.427 5.0328 -36.414 15.098 -47.96 c 10.14 -11.546 24.128 -17.319 41.965 -17.319" stroke-linecap="round" />
</g>
<g transform="matrix(0.3 0 0 0.29 328.21 255.47)"  >
<path style="stroke: none; stroke-width: 1; stroke-dasharray: none; stroke-linecap: butt; stroke-dashoffset: 0; stroke-linejoin: miter; stroke-miterlimit: 4; fill: rgb(255,255,255); fill-rule: nonzero; opacity: 1;"  transform=" translate(-409.77, -248.26)" d="m 416.6 211.46 c 5.1067 -9.1774 11.213 -15.949 18.318 -20.316 c 7.105 -4.3666 15.468 -6.5499 25.09 -6.55 c 12.952 0.00013 22.943 4.5518 29.975 13.655 c 7.0309 9.0296 10.546 21.908 10.547 38.634 v 75.048 h -20.538 v -74.382 c -0.00019 -11.916 -2.1095 -20.76 -6.328 -26.533 c -4.2188 -5.7728 -10.658 -8.6593 -19.317 -8.6594 c -10.584 0.00011 -18.947 3.5157 -25.09 10.547 c -6.1431 7.0312 -9.2146 16.616 -9.2145 28.754 v 70.274 h -20.538 v -74.382 c -0.0001 -11.99 -2.1094 -20.834 -6.328 -26.533 c -4.2188 -5.7728 -10.732 -8.6593 -19.539 -8.6594 c -10.436 0.00011 -18.725 3.5527 -24.868 10.658 c -6.143 7.0312 -9.2145 16.579 -9.2145 28.643 v 70.274 h -20.538 v -124.34 h 20.538 v 19.317 c 4.6627 -7.6231 10.251 -13.248 16.764 -16.875 c 6.513 -3.6265 14.247 -5.4397 23.203 -5.4399 c 9.0294 0.00013 16.69 2.2945 22.981 6.8831 c 6.3649 4.5888 11.065 11.25 14.099 19.983" stroke-linecap="round" />
</g>
<g transform="matrix(0.3 0 0 0.29 384.02 262.33)"  >
<path style="stroke: none; stroke-width: 1; stroke-dasharray: none; stroke-linecap: butt; stroke-dashoffset: 0; stroke-linejoin: miter; stroke-miterlimit: 4; fill: rgb(255,255,255); fill-rule: nonzero; opacity: 1;"  transform=" translate(-595.78, -271.91)" d="m 560.7 293.28 v 65.945 h -20.538 v -171.63 h 20.538 v 18.873 c 4.2926 -7.4011 9.6955 -12.878 16.209 -16.431 c 6.587 -3.6265 14.432 -5.4397 23.536 -5.4399 c 15.098 0.00013 27.347 5.9951 36.747 17.985 c 9.4734 11.99 14.21 27.755 14.21 47.294 c -0.00014 19.539 -4.7369 35.304 -14.21 47.294 c -9.3996 11.99 -21.649 17.985 -36.747 17.985 c -9.1035 0 -16.949 -1.7763 -23.536 -5.3288 c -6.5131 -3.6266 -11.916 -9.1404 -16.209 -16.542 m 69.497 -43.408 c -0.00011 -15.024 -3.1086 -26.792 -9.3255 -35.304 c -6.1431 -8.5853 -14.617 -12.878 -25.423 -12.878 c -10.806 0.00011 -19.317 4.2928 -25.534 12.878 c -6.143 8.5114 -9.2145 20.279 -9.2145 35.304 c -0.00004 15.024 3.0714 26.829 9.2145 35.415 c 6.2169 8.5114 14.728 12.767 25.534 12.767 c 10.806 0.00001 19.28 -4.2557 25.423 -12.767 c 6.2169 -8.5853 9.3254 -20.39 9.3255 -35.415" stroke-linecap="round" />
</g>
<g transform="matrix(0.3 0 0 0.29 424.29 255.94)"  >
<path style="stroke: none; stroke-width: 1; stroke-dasharray: none; stroke-linecap: butt; stroke-dashoffset: 0; stroke-linejoin: miter; stroke-miterlimit: 4; fill: rgb(255,255,255); fill-rule: nonzero; opacity: 1;"  transform=" translate(-730, -249.87)" d="m 741.77 249.43 c -16.505 0.00006 -27.94 1.8874 -34.304 5.6619 c -6.365 3.7747 -9.5476 10.214 -9.5475 19.317 c -0.00003 7.2532 2.3684 13.026 7.1051 17.319 c 4.8107 4.2187 11.324 6.328 19.539 6.328 c 11.324 0.00001 20.39 -3.9966 27.199 -11.99 c 6.883 -8.0672 10.325 -18.762 10.325 -32.084 v -4.5517 h -20.316 m 40.744 -8.4374 v 70.94 h -20.427 v -18.873 c -4.6628 7.5492 -10.473 13.137 -17.43 16.764 c -6.9572 3.5526 -15.469 5.3288 -25.534 5.3288 c -12.73 0 -22.87 -3.5526 -30.419 -10.658 c -7.4752 -7.1791 -11.213 -16.764 -11.213 -28.754 c -0.00001 -13.988 4.6627 -24.535 13.988 -31.64 c 9.3995 -7.1051 23.388 -10.658 41.965 -10.658 h 28.643 v -1.9983 c -0.0001 -9.3994 -3.1086 -16.653 -9.3255 -21.759 c -6.1431 -5.1807 -14.802 -7.7711 -25.978 -7.7712 c -7.1052 0.00011 -14.025 0.85124 -20.76 2.5534 c -6.7351 1.7024 -13.211 4.2558 -19.428 7.6602 v -18.873 c 7.4752 -2.8863 14.728 -5.0327 21.759 -6.439 c 7.0311 -1.4801 13.877 -2.2202 20.538 -2.2204 c 17.985 0.00013 31.418 4.6629 40.299 13.988 c 8.8813 9.3256 13.322 23.462 13.322 42.409" stroke-linecap="round" />
</g>
<g transform="matrix(0.3 0 0 0.29 468.22 255.48)"  >
<path style="stroke: none; stroke-width: 1; stroke-dasharray: none; stroke-linecap: butt; stroke-dashoffset: 0; stroke-linejoin: miter; stroke-miterlimit: 4; fill: rgb(255,255,255); fill-rule: nonzero; opacity: 1;"  transform=" translate(-876.43, -248.27)" d="m 928.5 236.89 v 75.048 h -20.427 v -74.382 c -0.0001 -11.768 -2.2945 -20.575 -6.8831 -26.422 c -4.5888 -5.8468 -11.472 -8.7703 -20.649 -8.7704 c -11.028 0.00011 -19.724 3.5157 -26.089 10.547 c -6.3651 7.0312 -9.5476 16.616 -9.5475 28.754 v 70.274 h -20.538 v -124.34 h 20.538 v 19.317 c 4.8847 -7.4751 10.621 -13.063 17.208 -16.764 c 6.661 -3.7005 14.321 -5.5508 22.981 -5.5509 c 14.284 0.00013 25.09 4.4408 32.417 13.322 c 7.327 8.8075 10.991 21.797 10.991 38.967" stroke-linecap="round" />
</g>
<g transform="matrix(0.3 0 0 0.29 509.88 262.77)"  >
<path style="stroke: none; stroke-width: 1; stroke-dasharray: none; stroke-linecap: butt; stroke-dashoffset: 0; stroke-linejoin: miter; stroke-miterlimit: 4; fill: rgb(255,255,255); fill-rule: nonzero; opacity: 1;"  transform=" translate(-1015.32, -273.41)" d="m 1021.2 323.48 c -5.7729 14.802 -11.398 24.461 -16.875 28.976 c -5.4769 4.5147 -12.804 6.772 -21.981 6.7721 h -16.32 v -17.097 h 11.99 c 5.6249 -0.00003 9.9916 -1.3322 13.1 -3.9966 s 6.55 -8.9554 10.325 -18.873 l 3.6636 -9.3255 l -50.291 -122.34 h 21.648 l 38.856 97.252 l 38.856 -97.252 h 21.648 l -54.621 135.89" stroke-linecap="round" />
</g>
</svg>